<svg width="28" height="28" viewBox="0 0 28 28" fill="none" xmlns="http://www.w3.org/2000/svg">
<g opacity="0.5" clip-path="url(#clip0_15_1098)">
<path d="M14.0003 23.8163C19.4144 23.8163 23.8167 19.4377 23.8167 14.0268C23.8167 8.61038 19.4087 4.21036 14.0003 4.21036C12.0911 4.21036 10.2527 4.74737 8.67273 5.77586C7.13512 6.75936 5.89902 8.17104 5.1191 9.83096C4.71387 10.7221 3.63163 11.0875 2.73986 10.6407C1.90478 10.2021 1.57328 9.17067 1.97664 8.32298C3.03558 6.09422 4.70857 4.19012 6.78415 2.84328C8.93151 1.44871 11.4209 0.716797 14 0.716797C21.9093 0.716797 27.2828 6.36043 27.2828 13.9999C27.2828 21.3364 21.2897 27.3124 13.9702 27.2567C6.63761 27.2283 0.716797 21.2126 0.716797 13.8401C0.716797 12.956 1.43226 12.2405 2.31632 12.2405H10.6364V10.5241C10.6364 9.56051 11.6983 8.95584 12.5016 9.4578L18.5052 12.9442C19.2993 13.44 19.2993 14.5879 18.4874 15.0944L12.5174 18.5318C11.699 19.044 10.6356 18.4382 10.6356 17.4754V15.759H4.3515C5.16575 20.3666 9.20968 23.8163 14.0003 23.8163Z" fill="#ACB8DC"/>
</g>
<defs>
<clipPath id="clip0_15_1098">
<rect width="28" height="28" fill="white"/>
</clipPath>
</defs>
</svg>
