<svg width="1855" height="733" viewBox="0 0 1855 733" fill="none" xmlns="http://www.w3.org/2000/svg">
<path opacity="0.2" d="M534.856 320.845C543.9 320.845 551.231 313.514 551.231 304.47C551.231 295.426 543.9 288.095 534.856 288.095C525.812 288.095 518.48 295.426 518.48 304.47C518.48 313.514 525.812 320.845 534.856 320.845Z" stroke="#2A2977" stroke-width="0.97" stroke-miterlimit="10"/>
<path opacity="0.2" d="M10.8836 475.436C16.7232 475.436 21.4571 470.703 21.4571 464.863C21.4571 459.023 16.7232 454.29 10.8836 454.29C5.04401 454.29 0.3101 459.023 0.3101 464.863C0.3101 470.703 5.04401 475.436 10.8836 475.436Z" stroke="#2A2977" stroke-width="0.62" stroke-miterlimit="10"/>
<path opacity="0.2" d="M1472.37 92.1903C1478.77 92.1903 1483.96 87.004 1483.96 80.6065C1483.96 74.2089 1478.77 69.0227 1472.37 69.0227C1465.98 69.0227 1460.79 74.2089 1460.79 80.6065C1460.79 87.004 1465.98 92.1903 1472.37 92.1903Z" stroke="#2A2977" stroke-width="0.68" stroke-miterlimit="10"/>
<path opacity="0.2" d="M1683.23 532.915C1692.28 532.915 1699.61 525.584 1699.61 516.54C1699.61 507.496 1692.28 500.164 1683.23 500.164C1674.19 500.164 1666.86 507.496 1666.86 516.54C1666.86 525.584 1674.19 532.915 1683.23 532.915Z" stroke="#2A2977" stroke-width="0.97" stroke-miterlimit="10"/>
<path opacity="0.2" d="M1178.28 137.205C1184.68 137.205 1189.86 132.019 1189.86 125.621C1189.86 119.224 1184.68 114.037 1178.28 114.037C1171.88 114.037 1166.69 119.224 1166.69 125.621C1166.69 132.019 1171.88 137.205 1178.28 137.205Z" stroke="#2A2977" stroke-width="0.68" stroke-miterlimit="10"/>
<path opacity="0.2" d="M92.3696 103.194C98.7671 103.194 103.953 98.0077 103.953 91.6101C103.953 85.2126 98.7671 80.0263 92.3696 80.0263C85.972 80.0263 80.7858 85.2126 80.7858 91.6101C80.7858 98.0077 85.972 103.194 92.3696 103.194Z" stroke="#2A2977" stroke-width="0.68" stroke-miterlimit="10"/>
<g opacity="0.3">
<path d="M1310.53 127.042V146.618" stroke="#2A2977" stroke-width="0.76" stroke-miterlimit="10"/>
<path d="M1320.32 136.835H1300.74" stroke="#2A2977" stroke-width="0.76" stroke-miterlimit="10"/>
</g>
<g opacity="0.3">
<path d="M293.187 529.174V556.743" stroke="#2A2977" stroke-width="1.06" stroke-miterlimit="10"/>
<path d="M306.981 542.959H279.402" stroke="#2A2977" stroke-width="1.06" stroke-miterlimit="10"/>
</g>
<g opacity="0.3">
<path d="M1850.46 723.238V732.321" stroke="#2A2977" stroke-miterlimit="10"/>
<path d="M1855 727.779H1845.92" stroke="#2A2977" stroke-miterlimit="10"/>
</g>
<g opacity="0.3">
<path d="M1831.78 98.0322V107.115" stroke="#2A2977" stroke-miterlimit="10"/>
<path d="M1836.32 102.574H1827.24" stroke="#2A2977" stroke-miterlimit="10"/>
</g>
<g opacity="0.3">
<path d="M359.968 137.045V146.128" stroke="#2A2977" stroke-miterlimit="10"/>
<path d="M364.51 141.587H355.427" stroke="#2A2977" stroke-miterlimit="10"/>
</g>
<g opacity="0.3">
<path d="M662.068 0V9.083" stroke="#2A2977" stroke-miterlimit="10"/>
<path d="M666.609 4.54147H657.526" stroke="#2A2977" stroke-miterlimit="10"/>
</g>
</svg>
