<svg width="1920" height="1331" viewBox="0 0 1920 1331" fill="none" xmlns="http://www.w3.org/2000/svg">
<path opacity="0.2" d="M558.37 320.74C567.411 320.74 574.74 313.411 574.74 304.37C574.74 295.329 567.411 288 558.37 288C549.329 288 542 295.329 542 304.37C542 313.411 549.329 320.74 558.37 320.74Z" stroke="#2A2977" stroke-width="0.97" stroke-miterlimit="10"/>
<path opacity="0.2" d="M34.57 475.28C40.4077 475.28 45.14 470.548 45.14 464.71C45.14 458.872 40.4077 454.14 34.57 454.14C28.7324 454.14 24 458.872 24 464.71C24 470.548 28.7324 475.28 34.57 475.28Z" stroke="#2A2977" stroke-width="0.62" stroke-miterlimit="10"/>
<path opacity="0.2" d="M1495.58 92.16C1501.98 92.16 1507.16 86.9754 1507.16 80.58C1507.16 74.1845 1501.98 69 1495.58 69C1489.18 69 1484 74.1845 1484 80.58C1484 86.9754 1489.18 92.16 1495.58 92.16Z" stroke="#2A2977" stroke-width="0.68" stroke-miterlimit="10"/>
<path opacity="0.2" d="M1706.37 532.74C1715.41 532.74 1722.74 525.411 1722.74 516.37C1722.74 507.329 1715.41 500 1706.37 500C1697.33 500 1690 507.329 1690 516.37C1690 525.411 1697.33 532.74 1706.37 532.74Z" stroke="#2A2977" stroke-width="0.97" stroke-miterlimit="10"/>
<path opacity="0.2" d="M1201.58 137.16C1207.98 137.16 1213.16 131.975 1213.16 125.58C1213.16 119.185 1207.98 114 1201.58 114C1195.18 114 1190 119.185 1190 125.58C1190 131.975 1195.18 137.16 1201.58 137.16Z" stroke="#2A2977" stroke-width="0.68" stroke-miterlimit="10"/>
<path opacity="0.2" d="M116.029 103.16C122.425 103.16 127.609 97.9755 127.609 91.58C127.609 85.1845 122.425 80 116.029 80C109.634 80 104.449 85.1845 104.449 91.58C104.449 97.9755 109.634 103.16 116.029 103.16Z" stroke="#2A2977" stroke-width="0.68" stroke-miterlimit="10"/>
<g opacity="0.3">
<path d="M-60 226.761C-59.8399 224.978 -59.6684 223.183 -59.5198 221.399C-58.182 204.843 -53.1511 189.475 -44.5528 175.286C-44.4614 175.126 -44.347 174.977 -44.2327 174.829C-44.187 174.772 -44.1184 174.749 -43.9697 174.646C-42.449 175.595 -40.894 176.567 -39.3161 177.55C-53.0939 200.692 -57.5532 225.412 -51.7676 251.721C-47.0683 273.091 -36.2404 290.974 -19.6956 305.266C-1.84736 320.668 19.008 328.706 42.5503 329.357C66.1041 330.009 87.2453 322.863 106.1 308.593C107.255 310.068 108.375 311.509 109.564 313.03C109.244 313.304 108.981 313.544 108.684 313.773C95.3977 323.789 80.5908 330.386 64.2175 333.405C55.5735 334.994 46.8495 335.566 38.0911 334.914C13.8742 333.085 -7.39279 324.201 -25.4126 307.862C-41.2942 293.466 -51.7447 275.755 -56.9357 254.969C-58.5708 248.406 -59.5426 241.728 -59.7713 234.948C-59.7942 234.399 -59.92 233.85 -60 233.29C-60 231.106 -60 228.934 -60 226.75V226.761Z" fill="#C4532C"/>
<path d="M48.233 125C49.9824 125.16 51.7318 125.332 53.4812 125.469C68.6654 126.658 82.9806 130.866 96.1867 138.435C122.507 153.516 139.464 175.846 147.056 205.22C148.782 211.875 149.663 218.678 149.926 225.572C150.818 248.657 144.884 269.81 132.066 289.03C131.757 289.499 131.426 289.956 131.026 290.539C130.237 289.991 129.482 289.476 128.727 288.95C127.961 288.413 127.207 287.875 126.406 287.304C141.636 264.756 147.376 240.07 142.871 213.269C139.304 192.071 129.482 174.04 114.218 158.913C85.8505 130.797 36.1932 119.477 -6.59234 145.158C-7.55278 143.58 -8.51323 142.002 -9.55371 140.276C-7.43845 139.098 -5.43752 137.92 -3.39086 136.857C7.42558 131.231 18.8823 127.63 30.9565 126.006C33.895 125.617 36.8563 125.492 39.8063 125.24C40.3665 125.194 40.9154 125.08 41.4642 125C43.7167 125 45.9691 125 48.233 125V125Z" fill="#C4532C"/>
<path d="M5.1731 303.608C5.48181 303.037 5.79052 302.454 6.1221 301.848C26.7602 312.115 48.0043 313.99 69.8316 306.707C86.4107 301.173 99.6626 291.008 109.896 276.842C129.928 249.103 131.311 206.272 104.099 175.869C104.591 175.435 105.094 174.989 105.585 174.554C129.173 199.389 136.731 244.621 110.456 279.723C82.7633 316.712 35.8273 320.485 5.18453 303.62L5.1731 303.608Z" fill="#C4532C"/>
<path d="M-22.3131 276.91C-22.9077 277.333 -23.4222 277.711 -23.9253 278.076C-42.7912 253.242 -47.6963 209.553 -19.8434 176.521C9.53017 141.682 56.4319 139.967 86.4343 158.695C86.1028 159.256 85.7712 159.827 85.4053 160.445C66.002 149.32 45.4782 146.175 23.8339 151.549C7.2777 155.665 -6.59158 164.378 -17.671 177.333C-29.7109 191.408 -36.2053 207.77 -37.0628 226.304C-37.9204 244.804 -32.8323 261.577 -22.3017 276.91H-22.3131Z" fill="#C4532C"/>
<path d="M123.525 300.19C120.952 302.682 118.494 305.072 115.967 307.542C114.652 306.101 113.417 304.752 112.182 303.403C114.595 301.104 116.962 298.84 119.397 296.519C120.518 297.526 121.89 298.738 123.525 300.19Z" fill="#C4532C"/>
<path d="M99.3192 170.987C97.3526 169.306 95.3745 167.614 93.3164 165.853C93.728 165.304 94.1282 164.767 94.6313 164.104C96.758 165.922 98.8275 167.683 101.023 169.558C100.394 170.084 99.9023 170.495 99.3306 170.976L99.3192 170.987Z" fill="#C4532C"/>
</g>
<g opacity="0.3">
<path d="M1742 605.019C1742.22 602.617 1742.45 600.2 1742.65 597.798C1744.45 575.506 1751.22 554.815 1762.8 535.709C1762.92 535.493 1763.08 535.293 1763.23 535.093C1763.29 535.016 1763.38 534.985 1763.58 534.847C1765.63 536.124 1767.73 537.433 1769.85 538.757C1751.3 569.917 1745.29 603.202 1753.08 638.627C1759.41 667.401 1773.99 691.479 1796.27 710.724C1820.3 731.461 1848.38 742.284 1880.08 743.162C1911.8 744.039 1940.26 734.417 1965.65 715.204C1967.2 717.19 1968.71 719.13 1970.31 721.177C1969.88 721.547 1969.53 721.87 1969.13 722.178C1951.24 735.664 1931.3 744.547 1909.26 748.612C1897.62 750.752 1885.87 751.522 1874.08 750.644C1841.47 748.181 1812.83 736.218 1788.57 714.218C1767.19 694.836 1753.12 670.988 1746.13 642.999C1743.92 634.162 1742.62 625.171 1742.31 616.042C1742.28 615.303 1742.11 614.564 1742 613.81C1742 610.869 1742 607.944 1742 605.003V605.019Z" fill="#C4532C"/>
<path d="M1887.73 468C1890.09 468.216 1892.44 468.446 1894.8 468.631C1915.24 470.232 1934.52 475.898 1952.3 486.09C1987.74 506.396 2010.57 536.463 2020.8 576.014C2023.12 584.974 2024.31 594.134 2024.66 603.418C2025.86 634.501 2017.87 662.983 2000.61 688.862C2000.2 689.494 1999.75 690.109 1999.21 690.895C1998.15 690.156 1997.13 689.463 1996.12 688.755C1995.09 688.031 1994.07 687.307 1992.99 686.538C2013.5 656.178 2021.23 622.939 2015.16 586.852C2010.36 558.309 1997.13 534.031 1976.58 513.663C1938.38 475.805 1871.52 460.564 1813.91 495.142C1812.62 493.018 1811.33 490.893 1809.92 488.568C1812.77 486.983 1815.47 485.397 1818.22 483.965C1832.79 476.39 1848.21 471.541 1864.47 469.355C1868.43 468.831 1872.41 468.662 1876.39 468.323C1877.14 468.262 1877.88 468.108 1878.62 468C1881.65 468 1884.68 468 1887.73 468V468Z" fill="#C4532C"/>
<path d="M1829.75 708.492C1830.17 707.722 1830.59 706.937 1831.03 706.121C1858.82 719.946 1887.42 722.471 1916.81 712.664C1939.14 705.212 1956.98 691.526 1970.76 672.451C1997.73 635.102 1999.6 577.431 1962.95 536.494C1963.62 535.909 1964.29 535.309 1964.96 534.724C1996.72 568.163 2006.89 629.067 1971.51 676.331C1934.23 726.135 1871.03 731.215 1829.77 708.507L1829.75 708.492Z" fill="#C4532C"/>
<path d="M1792.74 672.543C1791.94 673.113 1791.25 673.621 1790.57 674.113C1765.17 640.675 1758.57 581.849 1796.07 537.371C1835.62 490.462 1898.77 488.152 1939.17 513.37C1938.72 514.124 1938.28 514.894 1937.78 515.725C1911.66 500.746 1884.02 496.512 1854.88 503.748C1832.59 509.29 1813.91 521.021 1798.99 538.464C1782.78 557.416 1774.04 579.447 1772.88 604.403C1771.73 629.313 1778.58 651.898 1792.76 672.543H1792.74Z" fill="#C4532C"/>
<path d="M1792.25 511.076C1787.74 515.911 1783.37 520.591 1778.84 525.425C1777.01 523.962 1775.07 522.392 1772.82 520.606C1777.55 515.541 1782.17 510.568 1786.97 505.411C1788.89 507.489 1790.6 509.306 1792.23 511.076H1792.25Z" fill="#C4532C"/>
<path d="M1805.18 691.433C1806.03 690.494 1806.61 689.878 1807.18 689.247C1811.31 692.573 1815.37 695.852 1819.59 699.27C1819.15 699.916 1818.64 700.686 1817.95 701.702C1813.68 698.253 1809.52 694.913 1805.2 691.433H1805.18Z" fill="#C4532C"/>
</g>
<g opacity="0.3">
<path d="M1333.79 127V146.57" stroke="#2A2977" stroke-width="0.76" stroke-miterlimit="10"/>
<path d="M1343.58 136.79H1324" stroke="#2A2977" stroke-width="0.76" stroke-miterlimit="10"/>
</g>
<g opacity="0.3">
<path d="M316.78 529V556.56" stroke="#2A2977" stroke-width="1.06" stroke-miterlimit="10"/>
<path d="M330.57 542.78H303" stroke="#2A2977" stroke-width="1.06" stroke-miterlimit="10"/>
</g>
<g opacity="0.3">
<path d="M1818.54 1321V1330.08" stroke="#2A2977" stroke-miterlimit="10"/>
<path d="M1823.08 1325.54H1814" stroke="#2A2977" stroke-miterlimit="10"/>
</g>
<g opacity="0.3">
<path d="M1854.87 98V107.08" stroke="#2A2977" stroke-miterlimit="10"/>
<path d="M1859.41 102.54H1850.33" stroke="#2A2977" stroke-miterlimit="10"/>
</g>
<g opacity="0.3">
<path d="M383.54 137V146.08" stroke="#2A2977" stroke-miterlimit="10"/>
<path d="M388.08 141.54H379" stroke="#2A2977" stroke-miterlimit="10"/>
</g>
<g opacity="0.3">
<path d="M685.54 0V9.08002" stroke="#2A2977" stroke-miterlimit="10"/>
<path d="M690.08 4.53998H681" stroke="#2A2977" stroke-miterlimit="10"/>
</g>
</svg>
