<svg width="24" height="24" viewBox="0 0 24 24" fill="none" xmlns="http://www.w3.org/2000/svg">
<path fill-rule="evenodd" clip-rule="evenodd" d="M6 12C6 10.3436 4.65734 9 3.00058 9C1.34382 9 0 10.3435 0 12C0 13.6565 1.34266 15 2.99942 15C4.65618 15 6 13.6565 6 12ZM9 12C9 13.6564 10.3427 15 11.9994 15C13.6562 15 15 13.6565 15 12C15 10.3435 13.6573 9 12.0006 9C10.3438 9 9 10.3435 9 12ZM18 12C18 13.6564 19.3427 15 20.9994 15C22.6562 15 24 13.6565 24 12C24 10.3435 22.6573 9 21.0006 9C19.3438 9 18 10.3435 18 12Z" fill="#A9A9A9"/>
</svg>
