<svg width="28" height="614" viewBox="0 0 28 614" fill="none" xmlns="http://www.w3.org/2000/svg">
<path fill-rule="evenodd" clip-rule="evenodd" d="M25.3333 17.2187C25.0596 17.1237 24.8033 16.9662 24.5858 16.7475L13.9997 6.1626L3.4135 16.7475C3.196 16.9662 2.93974 17.1237 2.66602 17.2187V27.3335C2.66602 27.701 2.96476 27.9998 3.3335 27.9998H9.99969C10.1759 27.9998 10.3459 27.9298 10.471 27.8048C10.596 27.6798 10.666 27.5098 10.666 27.3335V19.3336C10.666 18.9648 10.9647 18.6661 11.3334 18.6661H16.6659C17.0346 18.6661 17.3334 18.9648 17.3334 19.3336V27.3335C17.3334 27.5098 17.4034 27.6798 17.5284 27.8048C17.6534 27.9298 17.8234 27.9998 17.9996 27.9998H24.6658C25.0345 27.9998 25.3333 27.701 25.3333 27.3335L25.3333 17.2187Z" fill="#2A2977"/>
<path fill-rule="evenodd" clip-rule="evenodd" d="M14.4713 0.194999L27.805 13.5287C28.065 13.7887 28.065 14.2111 27.805 14.4711L26.4713 15.8049C26.2113 16.0649 25.7888 16.0649 25.5288 15.8049L14.4712 4.74738C14.2112 4.48738 13.7888 4.48738 13.5288 4.74738L2.47124 15.8049C2.21124 16.0649 1.78875 16.0649 1.52875 15.8049L0.194999 14.4711C-0.0649995 14.2111 -0.0649995 13.7887 0.194999 13.5287L13.5287 0.194999C13.7887 -0.0649995 14.2112 -0.0649995 14.4711 0.194999H14.4713Z" fill="#2A2977"/>
<g opacity="0.6">
<path d="M1.7283 120.531L7.64883 114.61C8.08984 115.294 8.597 115.922 9.17031 116.495C9.74362 117.069 10.361 117.565 11.0225 117.984L5.13509 123.937C4.93663 124.114 4.70511 124.252 4.4405 124.351C4.17589 124.45 3.90027 124.5 3.61361 124.5C2.93004 124.5 2.35123 124.263 1.87714 123.789C1.40306 123.314 1.16602 122.736 1.16602 122.052C1.16602 121.765 1.21563 121.49 1.31486 121.225C1.41408 120.961 1.5519 120.729 1.7283 120.531ZM9.89797 108.524C9.89797 109.516 10.0854 110.454 10.4603 111.336C10.8351 112.218 11.3533 112.989 12.0148 113.651C12.6763 114.312 13.4481 114.831 14.3301 115.205C15.2121 115.58 16.1603 115.768 17.1746 115.768C18.1669 115.768 19.104 115.58 19.986 115.205C20.8681 114.831 21.6398 114.312 22.3013 113.651C22.9628 112.989 23.481 112.218 23.8559 111.336C24.2307 110.454 24.4182 109.505 24.4182 108.491C24.4182 107.499 24.2307 106.562 23.8559 105.68C23.481 104.798 22.9628 104.026 22.3013 103.364C21.6398 102.703 20.8681 102.185 19.986 101.81C19.104 101.435 18.1669 101.248 17.1746 101.248C16.1603 101.248 15.2121 101.435 14.3301 101.81C13.4481 102.185 12.6763 102.703 12.0148 103.364C11.3533 104.026 10.8351 104.798 10.4603 105.68C10.0854 106.562 9.89797 107.499 9.89797 108.491V108.524ZM17.1415 118.182C15.8185 118.182 14.5672 117.929 13.3875 117.421C12.2077 116.914 11.1769 116.231 10.2949 115.371C9.43491 114.489 8.75136 113.458 8.24419 112.278C7.73703 111.099 7.48346 109.847 7.48346 108.524C7.48346 107.179 7.73703 105.922 8.24419 104.754C8.75136 103.585 9.44042 102.56 10.3114 101.678C11.1824 100.795 12.2077 100.101 13.3875 99.5937C14.5672 99.0866 15.8185 98.833 17.1415 98.833C18.4866 98.833 19.749 99.0866 20.9287 99.5937C22.1084 100.101 23.1337 100.795 24.0047 101.678C24.8757 102.56 25.5648 103.585 26.0719 104.754C26.5791 105.922 26.8327 107.179 26.8327 108.524C26.8327 109.847 26.5791 111.099 26.0719 112.278C25.5648 113.458 24.8757 114.483 24.0047 115.354C23.1337 116.225 22.1084 116.914 20.9287 117.421C19.749 117.929 18.4866 118.182 17.1415 118.182ZM22.7975 108.524H21.1768C21.1768 107.4 20.7799 106.446 19.986 105.663C19.1922 104.88 18.2441 104.489 17.1415 104.489V102.868C18.7071 102.868 20.0412 103.419 21.1437 104.522C22.2462 105.625 22.7975 106.959 22.7975 108.524Z" fill="#ACB8DC"/>
</g>
<g opacity="0.6">
<path fill-rule="evenodd" clip-rule="evenodd" d="M13.9993 212.412C14.1729 212.412 14.3378 212.377 14.4939 212.308C14.6501 212.238 14.789 212.143 14.9104 212.021L25.7394 201.323C25.6179 201.271 25.4921 201.232 25.3619 201.206C25.2318 201.18 25.0973 201.167 24.9584 201.167H3.04026C2.90142 201.167 2.76259 201.18 2.62376 201.206C2.48492 201.232 2.35477 201.279 2.23329 201.349L13.0883 212.021C13.1924 212.143 13.3225 212.238 13.4787 212.308C13.6349 212.377 13.8085 212.412 13.9993 212.412ZM26.6244 217.618C26.6939 217.497 26.7416 217.367 26.7676 217.228C26.7936 217.089 26.8153 216.941 26.8327 216.785V203.015C26.8327 202.876 26.8153 202.737 26.7806 202.598C26.7459 202.459 26.6939 202.329 26.6244 202.208L18.4767 210.251L26.6244 217.618ZM1.37426 217.644L9.49597 210.251L1.34823 202.208C1.29617 202.329 1.25279 202.459 1.21808 202.598C1.18337 202.737 1.16602 202.876 1.16602 203.015V216.785C1.16602 216.941 1.18337 217.089 1.21808 217.228C1.25279 217.367 1.30485 217.505 1.37426 217.644ZM24.9584 218.659C25.0973 218.659 25.2318 218.646 25.3619 218.62C25.4921 218.594 25.6179 218.555 25.7394 218.503L17.5916 211.136L15.7695 212.907C15.2836 213.392 14.6892 213.635 13.9863 213.635C13.2835 213.635 12.6891 213.392 12.2032 212.907L10.381 211.136L2.25932 218.503C2.3808 218.555 2.50662 218.594 2.63677 218.62C2.72354 218.638 2.81224 218.649 2.90287 218.655L3.04026 218.659H24.9584Z" fill="#ACB8DC"/>
</g>
<g opacity="0.6" clip-path="url(#clip0_15_1031)">
<path d="M15.7904 308.051C15.7904 308.252 15.635 308.418 15.4294 308.418H12.4567C12.2587 308.418 12.0957 308.254 12.0957 308.051V306.299C12.0957 306.1 12.2587 305.933 12.4567 305.933H15.4294C15.635 305.933 15.7904 306.1 15.7904 306.299V308.051Z" fill="#ACB8DC"/>
<path d="M15.4294 305.933H12.4567C12.2587 305.933 12.0957 306.1 12.0957 306.299V308.051C12.0957 308.252 12.2587 308.418 12.4567 308.418H15.4294C15.635 308.418 15.7904 308.254 15.7904 308.051V306.299C15.7904 306.1 15.635 305.933 15.4294 305.933Z" fill="#ACB8DC"/>
<path d="M22.89 306.953C21.0307 307.147 18.9219 307.378 17.2343 307.791V308.051C17.2343 309.049 16.4249 309.86 15.4307 309.86H12.4568C11.4615 309.86 10.6554 309.049 10.6554 308.051V307.765C8.97761 307.366 6.90287 307.146 5.07839 306.954C3.96167 306.838 2.90075 306.726 1.98971 306.58C1.39799 306.494 0.902525 306.29 0.483617 306.029L0.445335 312.936C0.439866 314.503 1.4166 315.748 2.98611 315.753H24.7474C26.3192 315.77 27.3702 314.502 27.3801 312.936L27.4173 306.062C27.0169 306.308 26.5434 306.495 25.9768 306.579C25.0679 306.724 24.0037 306.837 22.8904 306.953L22.89 306.953Z" fill="#ACB8DC"/>
<path d="M2.25138 304.873C3.13842 305.007 4.17092 305.118 5.25802 305.23C7.1513 305.425 9.05762 305.636 10.7158 305.999C10.8602 305.153 11.5656 304.488 12.457 304.488H15.4298C16.3278 304.488 17.042 305.161 17.1809 306.021C18.8554 305.643 20.7881 305.431 22.7075 305.23C23.798 305.118 24.8272 305.006 25.7119 304.873C26.7127 304.716 27.1973 304.054 27.4346 303.53L27.4401 301.777C27.4554 300.211 26.4207 298.972 24.8544 298.96H3.0889C1.52154 298.946 0.518582 300.211 0.510938 301.777L0.5 303.452C0.720937 303.982 1.19782 304.708 2.25109 304.873L2.25138 304.873Z" fill="#ACB8DC"/>
<path d="M11.299 295.928H16.7285V297.729H18.7377V296.254C18.7432 294.89 17.6188 294.377 16.221 294.365H11.8494C10.4614 294.356 9.31842 294.889 9.30859 296.254V297.729H11.2992L11.299 295.928Z" fill="#ACB8DC"/>
</g>
<g opacity="0.6">
<path d="M17.6933 400.077L15.0125 394.585C14.8966 394.348 14.7139 394.175 14.505 394.075C14.3442 393.997 14.1714 393.957 14.0008 393.957C13.8291 393.957 13.6551 393.995 13.4965 394.072C13.2909 394.173 13.1105 394.344 12.9923 394.587L10.3115 400.076C10.2175 400.266 10.0348 400.407 9.80951 400.439L3.76767 401.291C3.50298 401.326 3.28313 401.446 3.12235 401.614C3.00313 401.737 2.91345 401.889 2.85985 402.053C2.80517 402.219 2.78767 402.396 2.81063 402.566C2.84126 402.795 2.94845 403.021 3.14423 403.21L7.50383 407.42C7.67555 407.567 7.76742 407.797 7.72586 408.035L6.666 414.057C6.62225 414.307 6.66163 414.542 6.76772 414.753C6.8585 414.924 6.97663 415.058 7.11335 415.159C7.25117 415.259 7.41413 415.33 7.58913 415.361C7.80678 415.399 8.04413 415.371 8.27272 415.257L13.6932 412.375C13.8803 412.277 14.1111 412.269 14.3112 412.375L19.7046 415.242C19.9321 415.362 20.1738 415.395 20.4057 415.359C20.5905 415.327 20.7557 415.256 20.8957 415.154C21.0346 415.054 21.1527 414.921 21.2347 414.766C21.3375 414.57 21.3824 414.333 21.3419 414.074L20.2799 408.036C20.2449 407.829 20.3094 407.606 20.4734 407.45L24.8451 403.224C25.0474 403.037 25.159 402.804 25.1918 402.567C25.2148 402.399 25.1995 402.225 25.1492 402.063C25.0988 401.901 25.0135 401.752 24.8998 401.629C24.739 401.456 24.5137 401.329 24.2359 401.291L18.2324 400.447C18.0093 400.428 17.8004 400.296 17.6943 400.079L17.6933 400.077Z" fill="#ACB8DC"/>
</g>
<g opacity="0.6">
<path d="M7.31516 490.152C5.7128 490.152 4.41016 491.446 4.41016 493.048V511.616C4.41016 513.218 5.7128 514.512 7.31516 514.512H20.6938C22.2962 514.512 23.5902 513.218 23.5902 511.616V493.048C23.5902 491.446 22.2962 490.152 20.6938 490.152H7.31516ZM7.42891 495.708C7.95172 495.708 8.37391 496.131 8.37391 496.653C8.37391 497.175 7.95172 497.598 7.42891 497.598C6.90609 497.598 6.48391 497.175 6.48391 496.653C6.48391 496.131 6.90609 495.708 7.42891 495.708ZM10.5263 496.347H20.8249V497.003H10.5263V496.347ZM7.42891 501.387C7.95172 501.387 8.37391 501.81 8.37391 502.332C8.37391 502.854 7.95172 503.277 7.42891 503.277C6.90609 503.277 6.48391 502.854 6.48391 502.332C6.48391 501.81 6.90609 501.387 7.42891 501.387ZM10.5263 501.947H20.8249V502.603H10.5263V501.947ZM7.42891 507.066C7.95172 507.066 8.37391 507.489 8.37391 508.011C8.37391 508.532 7.95172 508.956 7.42891 508.956C6.90609 508.956 6.48391 508.532 6.48391 508.011C6.48391 507.489 6.90609 507.066 7.42891 507.066ZM10.5263 507.547H20.8249V508.203H10.5263V507.547Z" fill="#ACB8DC"/>
</g>
<g opacity="0.6">
<path d="M14.001 612.25C16.9466 612.25 19.7914 611.184 22.0104 609.247L13.383 600.619C13.2189 600.455 13.126 600.233 13.126 600V587.795C8.86465 588.097 5.06841 590.598 3.11037 594.395C1.15146 598.192 1.31442 602.735 3.5391 606.382C5.76379 610.029 9.7285 612.253 14.0007 612.25L14.001 612.25Z" fill="#ACB8DC"/>
<path d="M14.875 587.795V599.125H26.2052C25.9919 596.191 24.7297 593.431 22.6495 591.351C20.5692 589.27 17.8097 588.008 14.875 587.795Z" fill="#ACB8DC"/>
<path d="M16.1133 600.875L23.2477 608.009C24.9824 606.015 26.0203 603.511 26.2062 600.875H16.1133Z" fill="#ACB8DC"/>
</g>
<defs>
<clipPath id="clip0_15_1031">
<rect width="28" height="28" fill="white" transform="translate(0 293)"/>
</clipPath>
</defs>
</svg>
