<svg width="24" height="24" viewBox="0 0 24 24" fill="none" xmlns="http://www.w3.org/2000/svg">
<path d="M16.6861 14.167L16.6861 14.1669L16.6784 14.175C16.5962 14.2613 16.5298 14.3713 16.4883 14.4849C16.4522 14.5836 16.4136 14.7437 16.4557 14.9214L17.4105 20.847L12.4012 18.0756C12.1469 17.9137 11.8217 17.9137 11.5674 18.0756L6.55813 20.847L7.51272 14.9227C7.55588 14.7438 7.51719 14.5827 7.48022 14.4828C7.43773 14.3679 7.37054 14.2593 7.29027 14.175L7.29029 14.175L7.28647 14.171L3.15211 9.92155L8.81337 9.04005C9.00663 9.02444 9.14861 8.92524 9.22592 8.8587C9.31799 8.77947 9.38817 8.68688 9.43723 8.60906L9.45301 8.58403L9.46573 8.55732L11.9995 3.23445L14.5341 8.62264L14.5472 8.65046L14.5636 8.67646C14.607 8.74533 14.6708 8.83599 14.7672 8.91709C14.869 9.0028 14.9847 9.05922 15.1115 9.09284L15.1368 9.09956L15.1627 9.10359L20.8448 9.98834L16.6861 14.167Z" stroke="#A9A9A9"/>
</svg>
