<svg width="24" height="24" viewBox="0 0 24 24" fill="none" xmlns="http://www.w3.org/2000/svg">
<path d="M1.48196 19.5979L6.5567 14.5232C6.93471 15.1091 7.36941 15.6478 7.86082 16.1392C8.35224 16.6306 8.88144 17.0558 9.44845 17.4149L4.40206 22.518C4.23196 22.6692 4.03351 22.7874 3.8067 22.8724C3.5799 22.9575 3.34364 23 3.09794 23C2.51202 23 2.0159 22.7968 1.60954 22.3905C1.20318 21.9841 1 21.488 1 20.9021C1 20.6564 1.04253 20.4201 1.12758 20.1933C1.21263 19.9665 1.33076 19.768 1.48196 19.5979ZM8.48454 9.3067C8.48454 10.1572 8.64519 10.9605 8.9665 11.7165C9.2878 12.4725 9.73196 13.134 10.299 13.701C10.866 14.268 11.5275 14.7122 12.2835 15.0335C13.0395 15.3548 13.8522 15.5155 14.7216 15.5155C15.5722 15.5155 16.3754 15.3548 17.1314 15.0335C17.8875 14.7122 18.549 14.268 19.116 13.701C19.683 13.134 20.1271 12.4725 20.4485 11.7165C20.7698 10.9605 20.9304 10.1478 20.9304 9.27835C20.9304 8.42783 20.7698 7.62457 20.4485 6.86856C20.1271 6.11254 19.683 5.45103 19.116 4.88402C18.549 4.31701 17.8875 3.87285 17.1314 3.55155C16.3754 3.23024 15.5722 3.06959 14.7216 3.06959C13.8522 3.06959 13.0395 3.23024 12.2835 3.55155C11.5275 3.87285 10.866 4.31701 10.299 4.88402C9.73196 5.45103 9.2878 6.11254 8.9665 6.86856C8.64519 7.62457 8.48454 8.42783 8.48454 9.27835V9.3067ZM14.6933 17.5851C13.5593 17.5851 12.4867 17.3677 11.4755 16.933C10.4643 16.4983 9.58076 15.9124 8.82474 15.1753C8.08763 14.4192 7.50172 13.5357 7.06701 12.5245C6.6323 11.5133 6.41495 10.4407 6.41495 9.3067C6.41495 8.15377 6.6323 7.07647 7.06701 6.07474C7.50172 5.07302 8.09235 4.19416 8.83892 3.43814C9.58549 2.68213 10.4643 2.08677 11.4755 1.65206C12.4867 1.21735 13.5593 1 14.6933 1C15.8462 1 16.9283 1.21735 17.9394 1.65206C18.9506 2.08677 19.8295 2.68213 20.576 3.43814C21.3226 4.19416 21.9132 5.07302 22.3479 6.07474C22.7826 7.07647 23 8.15377 23 9.3067C23 10.4407 22.7826 11.5133 22.3479 12.5245C21.9132 13.5357 21.3226 14.4145 20.576 15.1611C19.8295 15.9076 18.9506 16.4983 17.9394 16.933C16.9283 17.3677 15.8462 17.5851 14.6933 17.5851ZM19.5412 9.3067H18.1521C18.1521 8.34278 17.8119 7.52535 17.1314 6.85438C16.451 6.18342 15.6383 5.84794 14.6933 5.84794V4.45876C16.0352 4.45876 17.1787 4.93127 18.1237 5.87629C19.0687 6.82131 19.5412 7.96477 19.5412 9.3067Z" fill="#121032"/>
</svg>
