<svg width="24" height="24" viewBox="0 0 24 24" fill="none" xmlns="http://www.w3.org/2000/svg">
<path d="M17.0405 14.5197C16.9776 14.5858 16.9146 14.7194 16.9455 14.818L17.9565 21.0925C17.9886 21.3584 17.7355 21.5905 17.4825 21.4583L12.1423 18.5038C12.0473 18.4377 11.9214 18.4377 11.8263 18.5038L6.48616 21.4583C6.2331 21.5905 5.94918 21.3921 6.01213 21.0925L7.02315 14.818C7.05524 14.7181 6.99105 14.5858 6.92809 14.5197L2.5989 10.07C2.4088 9.87023 2.50385 9.5382 2.78901 9.47206L8.7612 8.54214C8.85625 8.54214 8.95131 8.44228 9.01427 8.34241L11.7005 2.69941C11.8264 2.43353 12.1745 2.43353 12.3004 2.69941L14.9866 8.40981C15.0495 8.50968 15.1125 8.57582 15.2396 8.60954L21.2118 9.53946C21.4958 9.57318 21.5908 9.93762 21.4019 10.1374L17.0405 14.5197Z" fill="#F7C72E"/>
</svg>
