<svg width="184" height="24" viewBox="0 0 184 24" fill="none" xmlns="http://www.w3.org/2000/svg">
<g clip-path="url(#clip0_0_105)">
<path fill-rule="evenodd" clip-rule="evenodd" d="M15.9752 9.07891L15.9686 9.10457L28.8277 9.10525C29.3238 10.022 29.7814 10.563 30.6411 11.2491C30.6453 11.4973 30.6475 11.7473 30.6475 11.9994C30.6475 18.5155 29.1924 23.8329 27.3865 24C20.8663 23.8329 15.6126 18.5155 15.6126 11.9994C15.6126 10.9923 15.7389 10.014 15.9752 9.07891ZM2.50643 0.241026C3.13697 0.241026 3.7126 0.369936 4.2327 0.626748C4.75281 0.884065 5.01299 1.30142 5.01299 1.87981V19.3679H14.3659C14.8699 19.3679 15.2484 19.6013 15.5011 20.0666C15.7531 20.5327 15.8792 21.0547 15.8792 21.6326C15.8792 22.1793 15.7531 22.693 15.5011 23.1751C15.2484 23.6568 14.8699 23.8978 14.3659 23.8978H2.22288C1.68633 23.8978 1.1823 23.7532 0.709552 23.4642C0.236559 23.1751 0 22.7577 0 22.211V1.87981C0 1.30142 0.260054 0.884065 0.780532 0.626748C1.30064 0.369936 1.8754 0.241026 2.50643 0.241026ZM27.3865 0C27.7096 0.00823279 28.0252 0.0286887 28.3334 0.0613679C28.9117 0.792238 29.4212 2.60656 29.7051 3.65926C29.4292 3.91734 29.2695 4.10497 29.0475 4.43147H18.413C18.4093 4.43562 18.406 4.4394 18.4025 4.44369H18.3201C20.4761 1.80815 23.7306 0.093753 27.3865 0ZM69.1632 22.4186C67.6654 21.5355 66.4748 20.363 65.5927 18.9007C64.7095 17.4393 64.2684 15.8886 64.2684 14.2502V1.93293C64.2684 1.51558 64.5124 1.13024 65.0014 0.776142C65.49 0.423057 66.0657 0.246136 66.7277 0.246136C67.4208 0.246136 68.012 0.423057 68.5011 0.776142C68.9896 1.13024 69.2342 1.51558 69.2342 1.93293V14.2502C69.2342 15.1177 69.4468 15.9293 69.8724 16.684C70.298 17.4393 70.873 18.0574 71.5986 18.5392C72.3234 19.0212 73.143 19.2622 74.0577 19.2622C74.9401 19.2622 75.7439 19.0212 76.4695 18.5392C77.1945 18.0574 77.7702 17.4308 78.1958 16.6597C78.6213 15.8886 78.8343 15.0859 78.8343 14.2502V1.88454C78.8343 1.43506 79.086 1.04946 79.5909 0.728258C80.0947 0.407179 80.6786 0.246136 81.3407 0.246136C82.0656 0.246136 82.6565 0.407179 83.1141 0.728258C83.5707 1.04946 83.7998 1.43506 83.7998 1.88454V14.2502C83.7998 15.9534 83.3578 17.5274 82.4755 18.9732C81.5925 20.4185 80.4103 21.5753 78.9289 22.4428C77.4466 23.3101 75.8385 23.7441 74.1051 23.7441C72.3078 23.7441 70.6601 23.3028 69.1632 22.4186ZM89.7397 23.1658C88.5103 22.7802 87.5407 22.2909 86.8315 21.6957C86.1219 21.1018 85.7674 20.4995 85.7674 19.8886C85.7674 19.5995 85.8383 19.2786 85.98 18.925C86.1219 18.5718 86.3266 18.2668 86.595 18.0091C86.8625 17.7523 87.1542 17.6239 87.4697 17.6239C87.8792 17.6239 88.3129 17.8089 88.7703 18.1778C89.227 18.5478 89.8342 18.9173 90.5911 19.2862C91.3479 19.6562 92.4037 19.8406 93.7594 19.8406C95.3356 19.8406 96.3997 19.5679 96.9518 19.0212C97.503 18.4754 97.7793 17.8812 97.7793 17.2382C97.7793 16.4032 97.503 15.7526 96.9518 15.2864C96.3997 14.821 95.6902 14.443 94.8235 14.154C93.9559 13.865 93.0337 13.5838 92.057 13.3106C91.0794 13.0379 90.1573 12.6767 89.2904 12.2263C88.423 11.7767 87.7137 11.1503 87.1625 10.3468C86.6105 9.54413 86.335 8.48399 86.335 7.16628C86.335 6.07426 86.6022 4.99018 87.1386 3.91341C87.6743 2.83714 88.5339 1.95405 89.7161 1.26287C90.8984 0.57245 92.4825 0.226547 94.4689 0.226547C95.6666 0.226547 96.8018 0.355457 97.8739 0.61227C98.9452 0.869586 99.8284 1.21461 100.522 1.64821C101.215 2.08195 101.563 2.55638 101.563 3.07001C101.563 3.29519 101.484 3.60833 101.326 4.00981C101.168 4.41179 100.955 4.765 100.688 5.06982C100.419 5.37553 100.08 5.52775 99.6708 5.52775C99.3552 5.52775 98.9616 5.40715 98.4886 5.16609C98.0156 4.92541 97.4639 4.69267 96.8333 4.46748C96.2023 4.24318 95.4301 4.13015 94.5161 4.13015C93.6013 4.13015 92.8684 4.283 92.317 4.58808C91.7651 4.89378 91.3633 5.25518 91.1113 5.67216C90.8584 6.09001 90.7328 6.50825 90.7328 6.92522C90.7328 7.63253 91.0004 8.17829 91.5368 8.56363C92.0725 8.94935 92.7821 9.27094 93.6648 9.52775C94.5471 9.78506 95.4776 10.0502 96.4552 10.3228C97.432 10.596 98.3541 10.9899 99.2217 11.5035C100.088 12.0176 100.798 12.7083 101.35 13.5756C101.901 14.443 102.177 15.5996 102.177 17.0455C102.177 19.0695 101.46 20.6922 100.025 21.9127C98.5907 23.1342 96.5498 23.7442 93.9014 23.7442C92.3562 23.7442 90.9693 23.5513 89.7397 23.1658ZM112.368 23.5759C111.943 23.3987 111.666 23.1505 111.541 22.829L103.596 3.31151C103.564 3.21511 103.525 3.08696 103.477 2.92579C103.43 2.76537 103.406 2.62096 103.406 2.49218C103.406 2.07508 103.588 1.70523 103.95 1.38378C104.313 1.06308 104.738 0.805383 105.227 0.61271C105.716 0.420038 106.18 0.323638 106.622 0.323638C106.937 0.323638 107.244 0.395717 107.545 0.540379C107.844 0.685041 108.041 0.918415 108.136 1.23912L113.811 16.4675L119.391 1.33539C119.516 1.01469 119.706 0.765563 119.958 0.588768C120.21 0.412351 120.526 0.323638 120.904 0.323638C121.251 0.323638 121.685 0.420038 122.205 0.61271C122.725 0.805383 123.181 1.07039 123.576 1.40772C123.97 1.74505 124.167 2.10671 124.167 2.49218C124.167 2.65322 124.151 2.79789 124.12 2.92579C124.088 3.0547 124.041 3.18348 123.978 3.31151L116.081 22.829C115.922 23.1505 115.631 23.3987 115.205 23.5759C114.78 23.7519 114.314 23.841 113.811 23.841C113.274 23.841 112.794 23.7519 112.368 23.5759ZM127.253 23.3676C126.796 23.0144 126.567 22.6288 126.567 22.2108V1.88454C126.567 1.40242 126.796 1.00952 127.253 0.703811C127.71 0.398988 128.301 0.246136 129.027 0.246136C129.72 0.246136 130.311 0.398988 130.8 0.703811C131.288 1.00952 131.533 1.40242 131.533 1.88454V22.2108C131.533 22.6288 131.288 23.0144 130.8 23.3676C130.311 23.7214 129.72 23.8976 129.027 23.8976C128.301 23.8976 127.71 23.7214 127.253 23.3676ZM160.969 23.6C160.622 23.4389 160.37 23.1505 160.213 22.7326L152.882 3.26325C152.819 3.10271 152.764 2.94986 152.717 2.80545C152.669 2.66078 152.646 2.54044 152.646 2.44379C152.646 2.02682 152.819 1.66554 153.166 1.35971C153.513 1.05463 153.93 0.805383 154.419 0.61271C154.908 0.420038 155.373 0.323638 155.815 0.323638C156.161 0.323638 156.476 0.395717 156.76 0.540379C157.044 0.685041 157.233 0.918415 157.328 1.23912L162.577 16.2266L166.597 2.92579C166.754 2.44379 166.991 2.13897 167.306 2.01006C167.621 1.88216 167.968 1.81751 168.347 1.81751C168.756 1.81751 169.119 1.88216 169.434 2.01006C169.749 2.13897 169.986 2.44379 170.144 2.92579L174.069 16.3229L179.366 1.23912C179.555 0.629344 180.043 0.323638 180.832 0.323638C181.273 0.323638 181.738 0.412351 182.227 0.588768C182.715 0.765563 183.132 1.01469 183.48 1.33539C183.826 1.65697 184 2.0427 184 2.49218C184 2.58845 183.984 2.71736 183.953 2.87778C183.921 3.03882 183.874 3.16685 183.811 3.26325L176.481 22.829C176.354 23.2142 176.11 23.4794 175.748 23.6239C175.385 23.7687 174.983 23.841 174.542 23.841C174.037 23.841 173.603 23.7604 173.241 23.6C172.878 23.4389 172.634 23.1985 172.508 22.877L168.347 10.4437L164.28 22.7326C164.153 23.118 163.893 23.3987 163.499 23.5759C163.105 23.7519 162.655 23.841 162.152 23.841C161.71 23.841 161.316 23.7604 160.969 23.6ZM38.8125 9.13087C38.8901 9.44401 38.956 9.76168 39.0082 10.0839C39.1092 10.7075 39.1619 11.3472 39.1619 11.9988C39.1619 12.6504 39.1092 13.29 39.0082 13.9137C38.9071 14.5374 38.7576 15.1452 38.5633 15.7331C38.369 16.321 38.1302 16.8888 37.8509 17.433C37.5716 17.977 37.2515 18.4973 36.8949 18.9898C36.5384 19.4824 36.1453 19.9471 35.7195 20.3801C35.2938 20.8129 34.8354 21.2142 34.3483 21.5796C33.8614 21.9452 33.3458 22.2751 32.8056 22.5651C32.2654 22.8553 31.7005 23.1057 31.115 23.3128C31.0509 23.3354 30.9856 23.3555 30.9211 23.3772C33.9369 21.7815 35.4535 17.2871 35.4535 11.9988L35.4533 11.9017C36.4547 11.1944 36.8563 10.4668 36.9815 9.13087H38.8125ZM31.4876 5.5408C32.5324 4.63263 34.3435 5.91606 34.6919 7.4083C34.8722 8.18025 34.6493 9.35796 33.2974 9.43911C31.1617 9.31461 30.2205 6.64227 31.4876 5.5408ZM34.3484 2.41889C33.8614 2.05345 33.3459 1.72368 32.8056 1.4336C32.3382 1.18258 31.8513 0.963322 31.3494 0.774177C31.3617 0.792071 31.3732 0.807949 31.384 0.821936C31.9207 1.38395 32.3612 2.60715 32.8201 3.22826C33.5478 3.54254 34.0269 3.8461 34.7185 4.43117C35.1719 4.43117 36.1471 4.4381 36.4532 4.43836C36.2207 4.15445 35.9768 3.87987 35.7195 3.61827C35.2937 3.18542 34.8355 2.78432 34.3484 2.41889ZM41.6601 14.2231C41.5872 13.5834 41.5521 12.9577 41.5521 12.3384C41.5521 9.95447 42.03 7.81995 42.9727 5.99391C43.92 4.15804 45.2679 2.71268 46.9787 1.69816C48.788 0.62542 50.7701 0.107889 52.8702 0.173289C56.0216 0.26427 59.0343 1.54014 60.9289 3.58557C61.7442 4.43061 61.7913 5.20344 61.6864 5.70182C61.5339 6.42626 60.9537 7.05292 60.1344 7.37815C59.3237 7.69974 58.3679 7.51475 57.6997 6.90712C56.4549 5.77402 54.8495 5.15026 53.179 5.15026C51.2833 5.15026 49.5245 5.92624 48.2266 7.33556C46.9296 8.74375 46.2818 10.5859 46.4026 12.5227C46.6178 15.9719 49.3322 18.7453 52.7166 18.9737C54.5144 19.0951 56.2511 18.5046 57.6099 17.3108L57.6481 17.2811C57.6765 17.2615 57.7049 17.2431 57.7332 17.225C58.9417 16.451 60.1432 16.9872 60.7481 17.8122C61.3481 18.6303 61.5103 19.9453 60.4488 20.8985C58.363 22.7722 55.6829 23.804 52.9021 23.804C47.3618 23.804 42.634 19.7746 41.6601 14.2231ZM135.724 23.1543C135.285 22.9046 135.066 22.5302 135.066 22.0308V2.21527C135.066 1.71589 135.285 1.34125 135.724 1.09175C136.163 0.841993 136.638 0.717115 137.148 0.717115H148.05C148.56 0.717115 148.927 0.940912 149.152 1.38826C149.377 1.83598 149.489 2.30865 149.489 2.80791C149.489 3.39059 149.367 3.89514 149.122 4.32156C148.877 4.74811 148.519 4.9612 148.05 4.9612H140.832C140.286 4.9612 139.843 5.41245 139.843 5.9693V9.22696C139.843 9.78368 140.286 10.2351 140.832 10.2351H148.164C148.634 10.2351 148.991 10.4276 149.236 10.8122C149.481 11.1974 149.604 11.6392 149.604 12.1385C149.604 12.5549 149.491 13.5283 149.267 13.9338C149.042 14.3398 148.674 14.5425 148.164 14.5425H141.131C140.419 14.5425 139.843 15.13 139.843 15.8547V18.2765C139.843 18.8332 140.286 19.2846 140.832 19.2846H148.05C148.519 19.2846 148.877 19.4983 149.122 19.9245C149.367 20.3512 149.489 20.8557 149.489 21.4379C149.489 21.9372 149.377 22.4108 149.152 22.8579C148.927 23.3055 148.56 23.5287 148.05 23.5287H137.148C136.638 23.5287 136.163 23.4038 135.724 23.1543Z" fill="#C4532C"/>
</g>
<defs>
<clipPath id="clip0_0_105">
<rect width="184" height="24" fill="white"/>
</clipPath>
</defs>
</svg>
