<svg width="24" height="24" viewBox="0 0 24 24" fill="none" xmlns="http://www.w3.org/2000/svg">
<g clip-path="url(#clip0_15_1789)">
<path d="M0 4.64466C0.0412512 4.43373 0.0768744 4.22279 0.124687 4.01186C0.642175 1.7253 2.67661 0.0640952 5.03437 0.0115352C5.70937 -0.00346483 6.38437 -0.00158995 7.05937 0.0115352C8.18998 0.0302852 9.0825 0.920919 9.0975 2.02715C9.12 3.15028 8.23311 4.08122 7.11001 4.11402C6.51001 4.13559 5.91001 4.11777 5.31001 4.12152C4.52626 4.12715 4.11001 4.54808 4.10907 5.33278V18.6489C4.10907 19.4486 4.5272 19.8677 5.3222 19.8733C5.94658 19.8771 6.57375 19.8546 7.1972 19.8893C8.66065 19.9708 9.55971 21.5993 8.85939 22.8893C8.51065 23.5305 7.96878 23.9496 7.23001 23.9777C6.33282 24.0115 5.42533 24.0293 4.53385 23.9421C2.2651 23.719 0.366727 21.8383 0.0525672 19.5827C0.0413172 19.5002 0.01788 19.4215 6.72e-05 19.3409V4.64469L0 4.64466Z" fill="#A9A9A9"/>
<path d="M16.948 10.2978C16.8504 10.1909 16.7933 10.1243 16.7323 10.0634C15.8642 9.18779 14.9905 8.31592 14.1278 7.43469C13.4322 6.72218 13.346 5.63094 13.9075 4.84533C14.5038 4.01094 15.58 3.71188 16.4801 4.15346C16.7032 4.26596 16.9057 4.41314 17.082 4.59033C19.1773 6.67814 21.2688 8.77161 23.3558 10.8678C24.2164 11.7322 24.2145 12.9696 23.3521 13.8339C21.3092 15.8824 19.2646 17.9271 17.2162 19.9688C16.3631 20.8191 15.0918 20.8247 14.2604 19.9969C13.4485 19.1879 13.4672 17.9194 14.3138 17.0653C15.1173 16.2525 15.9254 15.4463 16.7373 14.6447V14.6438C16.8011 14.5903 16.8686 14.5416 16.9398 14.4984L16.9014 14.4084H16.6277H8.22381C7.22632 14.4084 6.37413 13.7588 6.15568 12.8456C5.84068 11.5303 6.80349 10.3088 8.17507 10.3031C9.98445 10.2946 11.7938 10.3031 13.6031 10.3031H16.9473L16.948 10.2978Z" fill="#A9A9A9"/>
</g>
<defs>
<clipPath id="clip0_15_1789">
<rect width="24" height="24" fill="white"/>
</clipPath>
</defs>
</svg>
