<svg width="256" height="58" viewBox="0 0 256 58" fill="none" xmlns="http://www.w3.org/2000/svg">
<path fill-rule="evenodd" clip-rule="evenodd" d="M15.9752 28.0789L15.9686 28.1046L28.8277 28.1052C29.3238 29.022 29.7814 29.563 30.6411 30.2491C30.6453 30.4973 30.6475 30.7473 30.6475 30.9994C30.6475 37.5155 29.1924 42.8329 27.3865 43C20.8663 42.8329 15.6126 37.5155 15.6126 30.9994C15.6126 29.9923 15.7389 29.014 15.9752 28.0789ZM2.50643 19.241C3.13697 19.241 3.7126 19.3699 4.2327 19.6267C4.75281 19.8841 5.01299 20.3014 5.01299 20.8798V38.3679H14.3659C14.8699 38.3679 15.2484 38.6013 15.5011 39.0666C15.7531 39.5327 15.8792 40.0547 15.8792 40.6326C15.8792 41.1793 15.7531 41.693 15.5011 42.1751C15.2484 42.6568 14.8699 42.8978 14.3659 42.8978H2.22288C1.68633 42.8978 1.1823 42.7532 0.709552 42.4642C0.236559 42.1751 0 41.7577 0 41.211V20.8798C0 20.3014 0.260054 19.8841 0.780532 19.6267C1.30064 19.3699 1.8754 19.241 2.50643 19.241ZM27.3865 19C27.7096 19.0082 28.0252 19.0287 28.3334 19.0614C28.9117 19.7922 29.4212 21.6066 29.7051 22.6593C29.4292 22.9173 29.2695 23.105 29.0475 23.4315H18.413C18.4093 23.4356 18.406 23.4394 18.4025 23.4437H18.3201C20.4761 20.8081 23.7306 19.0938 27.3865 19ZM69.1632 41.4186C67.6654 40.5355 66.4748 39.363 65.5927 37.9007C64.7095 36.4393 64.2684 34.8886 64.2684 33.2502V20.9329C64.2684 20.5156 64.5124 20.1302 65.0014 19.7761C65.49 19.4231 66.0657 19.2461 66.7277 19.2461C67.4208 19.2461 68.012 19.4231 68.5011 19.7761C68.9896 20.1302 69.2342 20.5156 69.2342 20.9329V33.2502C69.2342 34.1177 69.4468 34.9293 69.8724 35.684C70.298 36.4393 70.873 37.0574 71.5986 37.5392C72.3234 38.0212 73.143 38.2622 74.0577 38.2622C74.9401 38.2622 75.7439 38.0212 76.4695 37.5392C77.1945 37.0574 77.7702 36.4308 78.1958 35.6597C78.6213 34.8886 78.8343 34.0859 78.8343 33.2502V20.8845C78.8343 20.4351 79.086 20.0495 79.5909 19.7283C80.0947 19.4072 80.6786 19.2461 81.3407 19.2461C82.0656 19.2461 82.6565 19.4072 83.1141 19.7283C83.5707 20.0495 83.7998 20.4351 83.7998 20.8845V33.2502C83.7998 34.9534 83.3578 36.5274 82.4755 37.9732C81.5924 39.4185 80.4103 40.5753 78.9289 41.4428C77.4466 42.3101 75.8385 42.7441 74.1051 42.7441C72.3078 42.7441 70.6601 42.3028 69.1632 41.4186ZM89.7397 42.1658C88.5103 41.7802 87.5407 41.2909 86.8315 40.6957C86.1219 40.1018 85.7674 39.4995 85.7674 38.8886C85.7674 38.5995 85.8383 38.2786 85.98 37.925C86.1219 37.5718 86.3266 37.2668 86.595 37.0091C86.8625 36.7523 87.1542 36.6239 87.4697 36.6239C87.8792 36.6239 88.3129 36.8089 88.7703 37.1778C89.227 37.5478 89.8342 37.9173 90.5911 38.2862C91.3479 38.6562 92.4037 38.8406 93.7594 38.8406C95.3356 38.8406 96.3997 38.5679 96.9518 38.0212C97.503 37.4754 97.7793 36.8812 97.7793 36.2382C97.7793 35.4032 97.503 34.7526 96.9518 34.2864C96.3997 33.821 95.6902 33.443 94.8235 33.154C93.9559 32.865 93.0337 32.5838 92.057 32.3106C91.0794 32.0379 90.1573 31.6767 89.2904 31.2263C88.423 30.7767 87.7137 30.1503 87.1625 29.3468C86.6105 28.5441 86.335 27.484 86.335 26.1663C86.335 25.0743 86.6022 23.9902 87.1386 22.9134C87.6743 21.8371 88.5339 20.954 89.7161 20.2629C90.8984 19.5725 92.4825 19.2265 94.4689 19.2265C95.6666 19.2265 96.8018 19.3555 97.8739 19.6123C98.9452 19.8696 99.8283 20.2146 100.522 20.6482C101.215 21.0819 101.563 21.5564 101.563 22.07C101.563 22.2952 101.484 22.6083 101.326 23.0098C101.168 23.4118 100.955 23.765 100.688 24.0698C100.419 24.3755 100.08 24.5277 99.6708 24.5277C99.3552 24.5277 98.9616 24.4072 98.4886 24.1661C98.0156 23.9254 97.4639 23.6927 96.8333 23.4675C96.2023 23.2432 95.4301 23.1301 94.5161 23.1301C93.6013 23.1301 92.8684 23.283 92.317 23.5881C91.7651 23.8938 91.3633 24.2552 91.1113 24.6722C90.8584 25.09 90.7328 25.5082 90.7328 25.9252C90.7328 26.6325 91.0004 27.1783 91.5368 27.5636C92.0725 27.9494 92.7821 28.2709 93.6648 28.5277C94.5472 28.7851 95.4775 29.0502 96.4552 29.3228C97.432 29.596 98.3541 29.9899 99.2217 30.5035C100.088 31.0176 100.798 31.7083 101.35 32.5756C101.901 33.443 102.177 34.5996 102.177 36.0455C102.177 38.0695 101.46 39.6922 100.025 40.9127C98.5907 42.1342 96.5498 42.7442 93.9014 42.7442C92.3562 42.7442 90.9693 42.5513 89.7397 42.1658ZM112.368 42.5759C111.943 42.3987 111.666 42.1505 111.541 41.829L103.596 22.3115C103.564 22.2151 103.525 22.087 103.477 21.9258C103.43 21.7654 103.406 21.621 103.406 21.4922C103.406 21.0751 103.588 20.7052 103.95 20.3838C104.313 20.0631 104.738 19.8054 105.227 19.6127C105.716 19.42 106.18 19.3236 106.622 19.3236C106.937 19.3236 107.244 19.3957 107.545 19.5404C107.844 19.685 108.041 19.9184 108.136 20.2391L113.811 35.4675L119.391 20.3354C119.516 20.0147 119.706 19.7656 119.958 19.5888C120.21 19.4124 120.526 19.3236 120.904 19.3236C121.251 19.3236 121.685 19.42 122.205 19.6127C122.725 19.8054 123.181 20.0704 123.576 20.4077C123.97 20.7451 124.167 21.1067 124.167 21.4922C124.167 21.6532 124.151 21.7979 124.12 21.9258C124.088 22.0547 124.041 22.1835 123.978 22.3115L116.081 41.829C115.922 42.1505 115.631 42.3987 115.205 42.5759C114.78 42.7519 114.314 42.841 113.811 42.841C113.274 42.841 112.794 42.7519 112.368 42.5759ZM127.253 42.3676C126.796 42.0144 126.567 41.6288 126.567 41.2108V20.8845C126.567 20.4024 126.796 20.0095 127.253 19.7038C127.71 19.399 128.301 19.2461 129.027 19.2461C129.72 19.2461 130.311 19.399 130.8 19.7038C131.288 20.0095 131.533 20.4024 131.533 20.8845V41.2108C131.533 41.6288 131.288 42.0144 130.8 42.3676C130.311 42.7214 129.72 42.8976 129.027 42.8976C128.301 42.8976 127.71 42.7214 127.253 42.3676ZM160.969 42.6C160.622 42.4389 160.37 42.1505 160.213 41.7326L152.882 22.2632C152.819 22.1027 152.764 21.9499 152.717 21.8054C152.669 21.6608 152.646 21.5404 152.646 21.4438C152.646 21.0268 152.819 20.6655 153.166 20.3597C153.513 20.0546 153.93 19.8054 154.419 19.6127C154.908 19.42 155.373 19.3236 155.815 19.3236C156.161 19.3236 156.476 19.3957 156.76 19.5404C157.044 19.685 157.233 19.9184 157.328 20.2391L162.577 35.2266L166.597 21.9258C166.754 21.4438 166.991 21.139 167.306 21.0101C167.621 20.8822 167.968 20.8175 168.347 20.8175C168.756 20.8175 169.119 20.8822 169.434 21.0101C169.749 21.139 169.986 21.4438 170.144 21.9258L174.069 35.3229L179.366 20.2391C179.555 19.6293 180.043 19.3236 180.832 19.3236C181.273 19.3236 181.738 19.4124 182.227 19.5888C182.715 19.7656 183.132 20.0147 183.48 20.3354C183.826 20.657 184 21.0427 184 21.4922C184 21.5885 183.984 21.7174 183.953 21.8778C183.921 22.0388 183.874 22.1668 183.811 22.2632L176.481 41.829C176.354 42.2142 176.11 42.4794 175.748 42.6239C175.385 42.7687 174.983 42.841 174.542 42.841C174.037 42.841 173.603 42.7604 173.241 42.6C172.878 42.4389 172.634 42.1985 172.508 41.877L168.347 29.4437L164.28 41.7326C164.153 42.118 163.893 42.3987 163.499 42.5759C163.105 42.7519 162.655 42.841 162.152 42.841C161.71 42.841 161.316 42.7604 160.969 42.6ZM38.8125 28.1309C38.8901 28.444 38.956 28.7617 39.0082 29.0839C39.1092 29.7075 39.1619 30.3472 39.1619 30.9988C39.1619 31.6504 39.1092 32.29 39.0082 32.9137C38.9071 33.5374 38.7576 34.1452 38.5633 34.7331C38.369 35.321 38.1302 35.8888 37.8509 36.433C37.5716 36.977 37.2515 37.4973 36.8949 37.9898C36.5384 38.4824 36.1453 38.9471 35.7195 39.3801C35.2938 39.8129 34.8354 40.2142 34.3483 40.5796C33.8614 40.9452 33.3458 41.2751 32.8056 41.5651C32.2654 41.8553 31.7005 42.1057 31.115 42.3128C31.0509 42.3354 30.9856 42.3555 30.9211 42.3772C33.9369 40.7815 35.4535 36.2871 35.4535 30.9988L35.4533 30.9017C36.4547 30.1944 36.8563 29.4668 36.9815 28.1309H38.8125ZM31.4876 24.5408C32.5324 23.6326 34.3435 24.9161 34.6919 26.4083C34.8722 27.1802 34.6493 28.358 33.2974 28.4391C31.1617 28.3146 30.2205 25.6423 31.4876 24.5408ZM34.3484 21.4189C33.8614 21.0535 33.3459 20.7237 32.8056 20.4336C32.3382 20.1826 31.8513 19.9633 31.3494 19.7742C31.3617 19.7921 31.3732 19.8079 31.384 19.8219C31.9207 20.3839 32.3612 21.6071 32.8201 22.2283C33.5478 22.5425 34.0269 22.8461 34.7185 23.4312C35.1719 23.4312 36.1471 23.4381 36.4532 23.4384C36.2207 23.1545 35.9768 22.8799 35.7195 22.6183C35.2937 22.1854 34.8355 21.7843 34.3484 21.4189ZM41.6601 33.2231C41.5872 32.5834 41.5521 31.9577 41.5521 31.3384C41.5521 28.9545 42.03 26.82 42.9727 24.9939C43.92 23.158 45.2679 21.7127 46.9787 20.6982C48.788 19.6254 50.7701 19.1079 52.8702 19.1733C56.0216 19.2643 59.0343 20.5401 60.9289 22.5856C61.7442 23.4306 61.7913 24.2034 61.6864 24.7018C61.5339 25.4263 60.9537 26.0529 60.1344 26.3782C59.3237 26.6997 58.3679 26.5148 57.6997 25.9071C56.4549 24.774 54.8495 24.1503 53.179 24.1503C51.2833 24.1503 49.5245 24.9262 48.2266 26.3356C46.9296 27.7437 46.2818 29.5859 46.4026 31.5227C46.6178 34.9719 49.3322 37.7453 52.7166 37.9737C54.5144 38.0951 56.2511 37.5046 57.6099 36.3108L57.6481 36.2811C57.6765 36.2615 57.7049 36.2431 57.7332 36.225C58.9417 35.451 60.1432 35.9872 60.7481 36.8122C61.3481 37.6303 61.5103 38.9453 60.4488 39.8985C58.363 41.7722 55.6829 42.804 52.9021 42.804C47.3618 42.804 42.634 38.7746 41.6601 33.2231ZM135.724 42.1543C135.285 41.9046 135.066 41.5302 135.066 41.0308V21.2153C135.066 20.7159 135.285 20.3413 135.724 20.0917C136.163 19.842 136.638 19.7171 137.148 19.7171H148.05C148.56 19.7171 148.927 19.9409 149.152 20.3883C149.377 20.836 149.489 21.3086 149.489 21.8079C149.489 22.3906 149.367 22.8951 149.122 23.3216C148.877 23.7481 148.519 23.9612 148.05 23.9612H140.832C140.286 23.9612 139.843 24.4125 139.843 24.9693V28.227C139.843 28.7837 140.286 29.2351 140.832 29.2351H148.164C148.634 29.2351 148.991 29.4276 149.236 29.8122C149.481 30.1974 149.604 30.6392 149.604 31.1385C149.604 31.5549 149.491 32.5283 149.267 32.9338C149.042 33.3398 148.674 33.5425 148.164 33.5425H141.131C140.419 33.5425 139.843 34.13 139.843 34.8547V37.2765C139.843 37.8332 140.286 38.2846 140.832 38.2846H148.05C148.519 38.2846 148.877 38.4983 149.122 38.9245C149.367 39.3512 149.489 39.8557 149.489 40.4379C149.489 40.9372 149.377 41.4108 149.152 41.8579C148.927 42.3055 148.56 42.5287 148.05 42.5287H137.148C136.638 42.5287 136.163 42.4038 135.724 42.1543Z" fill="#C4532C"/>
<path d="M187.781 28.8594C187.635 28.8594 187.516 28.8021 187.422 28.6875C187.339 28.5833 187.297 28.4688 187.297 28.3438C187.297 28.1146 187.417 27.9635 187.656 27.8906C188.146 27.6719 188.479 26.0573 188.656 23.0469C188.75 21.276 188.797 19.4792 188.797 17.6562C186.182 17.5 182.969 16.8125 179.156 15.5938C177.969 16.6562 176.885 17.1875 175.906 17.1875C175.302 17.1875 174.833 17.0156 174.5 16.6719C174.167 16.3281 174 15.9531 174 15.5469C174 15.1406 174.177 14.7708 174.531 14.4375C174.896 14.1042 175.469 13.9375 176.25 13.9375C176.677 13.9375 177.078 13.9844 177.453 14.0781C177.839 14.1615 178.318 14.2917 178.891 14.4688C179.766 13.6042 180.583 12.2188 181.344 10.3125C182.115 8.39583 182.719 5.79688 183.156 2.51562C183.177 2.36979 183.234 2.26562 183.328 2.20312C183.422 2.13021 183.526 2.09375 183.641 2.09375C183.766 2.09375 183.88 2.13542 183.984 2.21875C184.089 2.29167 184.141 2.40625 184.141 2.5625V2.64062C183.38 8.42188 181.979 12.474 179.938 14.7969C183.49 15.901 186.443 16.526 188.797 16.6719C188.797 16.3281 188.766 15.3333 188.703 13.6875C188.651 12.0312 188.583 10.224 188.5 8.26562C188.427 6.30729 188.359 4.60417 188.297 3.15625C188.234 1.69792 188.198 0.932292 188.188 0.859375C188.177 0.786458 188.167 0.71875 188.156 0.65625C188.156 0.510417 188.208 0.401042 188.312 0.328125C188.417 0.244792 188.531 0.203125 188.656 0.203125C188.771 0.203125 188.88 0.244792 188.984 0.328125C189.089 0.401042 189.146 0.526042 189.156 0.703125C189.542 6.01562 189.755 11.3385 189.797 16.6719C190.214 16.651 190.599 16.5938 190.953 16.5C191.307 16.4062 191.594 16.2552 191.812 16.0469C192.031 15.8385 192.141 15.5417 192.141 15.1562C192.141 14.9167 192.089 14.6354 191.984 14.3125L191.953 14.1562C191.953 14.0104 192.005 13.8958 192.109 13.8125C192.224 13.7188 192.349 13.6719 192.484 13.6719C192.672 13.6719 192.823 13.7865 192.938 14.0156C193.083 14.4844 193.156 14.901 193.156 15.2656C193.156 15.8281 193.005 16.2812 192.703 16.625C192.13 17.2708 191.161 17.6146 189.797 17.6562C189.786 24.0833 189.281 27.75 188.281 28.6562C188.094 28.7917 187.927 28.8594 187.781 28.8594ZM175.844 16.1562C176.448 16.1562 177.172 15.8542 178.016 15.25C177.328 15.0521 176.766 14.9531 176.328 14.9531C175.88 14.9531 175.547 15.026 175.328 15.1719C175.12 15.3177 175.016 15.4688 175.016 15.625C175.016 15.7604 175.083 15.8854 175.219 16C175.365 16.1042 175.573 16.1562 175.844 16.1562Z" fill="#2A2977"/>
<path d="M187 41.6562C186.406 41.6562 185.844 41.4688 185.312 41.0938C184.438 40.4271 184 39.4375 184 38.125C184 37.5 184.094 36.8802 184.281 36.2656C184.479 35.6406 184.724 35.0938 185.016 34.625C185.464 33.9479 185.948 33.4427 186.469 33.1094C186.99 32.7656 187.464 32.5938 187.891 32.5938C188.245 32.5938 188.536 32.7083 188.766 32.9375C189.005 33.1667 189.125 33.5052 189.125 33.9531C189.125 34.5573 188.854 35.3594 188.312 36.3594C187.969 36.9427 187.516 37.5052 186.953 38.0469C186.391 38.5781 185.812 39.0052 185.219 39.3281C185.375 39.7344 185.615 40.0573 185.938 40.2969C186.26 40.5365 186.625 40.6562 187.031 40.6562C187.99 40.6562 189.141 40.099 190.484 38.9844C191.443 38.1927 192.292 37.3594 193.031 36.4844C193.146 36.3698 193.266 36.3125 193.391 36.3125C193.526 36.3125 193.646 36.3646 193.75 36.4688C193.865 36.5729 193.922 36.6927 193.922 36.8281C193.922 36.9323 193.88 37.0365 193.797 37.1406C192.891 38.1927 191.911 39.1302 190.859 39.9531C189.422 41.0885 188.135 41.6562 187 41.6562ZM185.016 38.2969C185.474 38.0156 185.922 37.6562 186.359 37.2188C186.807 36.7812 187.167 36.3281 187.438 35.8594C187.917 34.9844 188.156 34.3646 188.156 34C188.156 33.7083 188.047 33.5625 187.828 33.5625C187.568 33.5625 187.25 33.7083 186.875 34C186.51 34.2917 186.172 34.6771 185.859 35.1562C185.286 36.1354 185 37.0885 185 38.0156L185.016 38.2969Z" fill="#2A2977"/>
<path d="M196.25 41.1719C195.823 41.1719 195.328 40.8281 194.766 40.1406C193.818 38.849 192.818 36.3854 191.766 32.75L191.734 32.5938C191.734 32.4479 191.792 32.3333 191.906 32.25C192.01 32.1667 192.13 32.125 192.266 32.125C192.495 32.125 192.646 32.2396 192.719 32.4688C193.76 36.0104 194.708 38.3646 195.562 39.5312C195.76 39.7708 195.943 39.8906 196.109 39.8906C196.661 39.8906 197.146 38.8802 197.562 36.8594C197.865 35.4323 198.062 34.1615 198.156 33.0469C197.99 32.9219 197.865 32.7656 197.781 32.5781C197.677 32.349 197.625 32.1146 197.625 31.875C197.625 31.5 197.719 31.1719 197.906 30.8906C198.104 30.599 198.307 30.4531 198.516 30.4531C198.693 30.4531 198.844 30.5833 198.969 30.8438C199.104 31.0938 199.172 31.5365 199.172 32.1719V32.3438L199.266 32.3281C199.422 32.3281 199.542 32.3802 199.625 32.4844C199.708 32.5885 199.75 32.7083 199.75 32.8438C199.75 32.9583 199.708 33.0729 199.625 33.1875C199.542 33.2917 199.375 33.3438 199.125 33.3438C199.094 33.7083 199.036 34.2031 198.953 34.8281C198.734 36.4115 198.438 37.776 198.062 38.9219C197.562 40.4219 196.958 41.1719 196.25 41.1719Z" fill="#2A2977"/>
<path d="M202.188 41.6562C201.594 41.6562 201.031 41.4688 200.5 41.0938C199.625 40.4271 199.188 39.4375 199.188 38.125C199.188 37.5 199.281 36.8802 199.469 36.2656C199.667 35.6406 199.911 35.0938 200.203 34.625C200.651 33.9479 201.135 33.4427 201.656 33.1094C202.177 32.7656 202.651 32.5938 203.078 32.5938C203.432 32.5938 203.724 32.7083 203.953 32.9375C204.193 33.1667 204.312 33.5052 204.312 33.9531C204.312 34.5573 204.042 35.3594 203.5 36.3594C203.156 36.9427 202.703 37.5052 202.141 38.0469C201.578 38.5781 201 39.0052 200.406 39.3281C200.562 39.7344 200.802 40.0573 201.125 40.2969C201.448 40.5365 201.812 40.6562 202.219 40.6562C203.177 40.6562 204.328 40.099 205.672 38.9844C206.63 38.1927 207.479 37.3594 208.219 36.4844C208.333 36.3698 208.453 36.3125 208.578 36.3125C208.714 36.3125 208.833 36.3646 208.938 36.4688C209.052 36.5729 209.109 36.6927 209.109 36.8281C209.109 36.9323 209.068 37.0365 208.984 37.1406C208.078 38.1927 207.099 39.1302 206.047 39.9531C204.609 41.0885 203.323 41.6562 202.188 41.6562ZM200.203 38.2969C200.661 38.0156 201.109 37.6562 201.547 37.2188C201.995 36.7812 202.354 36.3281 202.625 35.8594C203.104 34.9844 203.344 34.3646 203.344 34C203.344 33.7083 203.234 33.5625 203.016 33.5625C202.755 33.5625 202.438 33.7083 202.062 34C201.698 34.2917 201.359 34.6771 201.047 35.1562C200.474 36.1354 200.188 37.0885 200.188 38.0156L200.203 38.2969Z" fill="#2A2977"/>
<path d="M209.5 42.1562C209.323 42.1562 209.151 41.9896 208.984 41.6562C208.818 41.3125 208.677 40.7969 208.562 40.1094C208.292 38.4948 208.156 37.1927 208.156 36.2031C208.156 35.2656 208.26 34.5573 208.469 34.0781C208.677 33.599 208.974 33.2708 209.359 33.0938C209.318 32.7396 209.26 32.4688 209.188 32.2812C209.146 32.3229 209.099 32.3698 209.047 32.4219C209.005 32.474 208.953 32.526 208.891 32.5781C208.828 32.6198 208.755 32.6406 208.672 32.6406C208.599 32.6406 208.521 32.6198 208.438 32.5781C208.25 32.4635 208.156 32.3177 208.156 32.1406C208.156 32.0573 208.177 31.9792 208.219 31.9062C208.521 31.3646 208.833 31.0938 209.156 31.0938C209.271 31.0938 209.391 31.125 209.516 31.1875C209.828 31.3854 210.073 31.9479 210.25 32.875L210.75 32.8594C211.208 32.8594 211.661 32.8958 212.109 32.9688C212.557 33.0312 213.005 33.0625 213.453 33.0625C214.297 33.0625 215.057 32.8385 215.734 32.3906C215.828 32.3281 215.922 32.2969 216.016 32.2969C216.151 32.2969 216.266 32.3542 216.359 32.4688C216.464 32.5729 216.516 32.6927 216.516 32.8281C216.516 32.974 216.443 33.1042 216.297 33.2188C215.807 33.5417 215.344 33.7656 214.906 33.8906C214.469 34.0052 214.047 34.0625 213.641 34.0625C213.193 34.0625 212.74 34.026 212.281 33.9531C211.833 33.8802 211.349 33.8438 210.828 33.8438L210.391 33.8594C210.516 34.901 210.578 35.9688 210.578 37.0625C210.578 38.0521 210.521 39.0156 210.406 39.9531C210.312 40.6719 210.182 41.2188 210.016 41.5938C209.859 41.9688 209.688 42.1562 209.5 42.1562ZM209.562 40.1094C209.583 39.3802 209.594 38.6458 209.594 37.9062C209.594 36.6979 209.557 35.5 209.484 34.3125C209.234 34.6771 209.109 35.2656 209.109 36.0781C209.109 36.5469 209.141 37.0417 209.203 37.5625C209.266 38.0729 209.333 38.5521 209.406 39C209.479 39.4479 209.531 39.8177 209.562 40.1094Z" fill="#2A2977"/>
<path d="M219.844 57.5156C219.448 57.5156 219.12 57.2604 218.859 56.75C218.599 56.2396 218.469 55.5052 218.469 54.5469C218.562 51.9323 219.432 48.8958 221.078 45.4375C221.714 44.0938 222.286 43.026 222.797 42.2344L222.5 35.6562C222.406 35.9375 222.302 36.2188 222.188 36.5C222.031 36.875 221.802 37.3125 221.5 37.8125C221.208 38.3125 220.875 38.7604 220.5 39.1562C220.125 39.5417 219.75 39.7344 219.375 39.7344C218.875 39.7344 218.458 39.3073 218.125 38.4531C217.969 38.0156 217.797 36.9635 217.609 35.2969C217.453 33.7552 217.307 32.9219 217.172 32.7969C217.036 32.6719 216.969 32.5365 216.969 32.3906C216.969 32.2656 217.021 32.151 217.125 32.0469C217.219 31.9323 217.333 31.875 217.469 31.875C217.562 31.875 217.656 31.9062 217.75 31.9688C218.042 32.2083 218.245 32.651 218.359 33.2969C218.484 33.9427 218.573 34.651 218.625 35.4219C218.688 36.5156 218.828 37.4062 219.047 38.0938C219.193 38.4375 219.359 38.6094 219.547 38.6094C219.891 38.6094 220.312 38.1094 220.812 37.1094C221.74 35.224 222.203 33.6302 222.203 32.3281C222.203 31.974 222.182 31.7917 222.141 31.7812C221.974 31.7812 221.849 31.7344 221.766 31.6406C221.682 31.5365 221.641 31.4219 221.641 31.2969C221.641 31.026 221.781 30.8385 222.062 30.7344C222.135 30.7135 222.203 30.7031 222.266 30.7031C222.557 30.7031 222.776 30.8958 222.922 31.2812C223.078 31.6667 223.182 32.099 223.234 32.5781C223.297 33.0469 223.339 33.4479 223.359 33.7812C223.359 33.9167 223.365 34.0208 223.375 34.0938C223.594 35.9271 223.729 38.1562 223.781 40.7812C224.812 39.3438 226.036 37.9271 227.453 36.5312C227.568 36.4375 227.677 36.3906 227.781 36.3906C227.917 36.3906 228.036 36.4427 228.141 36.5469C228.245 36.651 228.297 36.7708 228.297 36.9062C228.297 37.0208 228.245 37.1354 228.141 37.25C226.401 38.9792 224.953 40.7344 223.797 42.5156V42.7031C223.797 44.1927 223.677 46.1302 223.438 48.5156C223.198 50.9115 222.729 53.0625 222.031 54.9688C221.677 55.8333 221.307 56.474 220.922 56.8906C220.536 57.3073 220.177 57.5156 219.844 57.5156ZM219.922 56.3594C220.234 56.3594 220.641 55.7396 221.141 54.5C221.714 52.8958 222.12 51.0781 222.359 49.0469C222.609 47.026 222.745 45.4115 222.766 44.2031C222.182 45.2344 221.521 46.7396 220.781 48.7188C219.948 50.9583 219.51 52.974 219.469 54.7656C219.469 55.8281 219.62 56.3594 219.922 56.3594Z" fill="#2A2977"/>
<path d="M229.922 40.8594C229.484 40.8594 229.078 40.7083 228.703 40.4062C228.328 40.0938 228.021 39.6354 227.781 39.0312C227.552 38.4271 227.438 37.6771 227.438 36.7812L227.453 36.3906C227.474 36.2135 227.552 36.0781 227.688 35.9844C227.396 35.3385 227.25 34.6562 227.25 33.9375C227.25 33.3229 227.37 32.8073 227.609 32.3906C227.849 31.974 228.161 31.6615 228.547 31.4531C228.943 31.2448 229.359 31.1406 229.797 31.1406C230.349 31.1406 230.891 31.3021 231.422 31.625C231.953 31.9375 232.391 32.4167 232.734 33.0625C233.078 33.7083 233.25 34.5208 233.25 35.5C233.25 36.0729 233.177 36.7083 233.031 37.4062C233.5 37.2083 234 36.8906 234.531 36.4531C234.635 36.3698 234.74 36.3281 234.844 36.3281C234.979 36.3281 235.099 36.3854 235.203 36.5C235.307 36.6042 235.359 36.724 235.359 36.8594C235.359 36.9844 235.297 37.1042 235.172 37.2188C234.276 37.9375 233.427 38.3958 232.625 38.5938C232.26 39.3542 231.839 39.9219 231.359 40.2969C230.88 40.6719 230.401 40.8594 229.922 40.8594ZM229.906 39.8594C230.406 39.8594 230.911 39.4792 231.422 38.7188C230.214 38.6354 229.224 38.1302 228.453 37.2031C228.484 37.9948 228.63 38.6354 228.891 39.125C229.161 39.6146 229.5 39.8594 229.906 39.8594ZM231.594 37.7188L231.906 37.7031C232.167 36.901 232.297 36.1875 232.297 35.5625C232.297 34.8125 232.161 34.1875 231.891 33.6875C231.62 33.1771 231.286 32.7917 230.891 32.5312C230.495 32.2604 230.104 32.125 229.719 32.125C229.323 32.125 228.974 32.276 228.672 32.5781C228.38 32.8698 228.234 33.3177 228.234 33.9219C228.234 34.1406 228.26 34.3854 228.312 34.6562C228.469 35.4896 228.844 36.2083 229.438 36.8125C230.031 37.4167 230.75 37.7188 231.594 37.7188Z" fill="#2A2977"/>
<path d="M235.781 42.2188C235.677 42.2188 235.578 42.1875 235.484 42.125C235.391 42.0625 235.328 41.9635 235.297 41.8281C235.193 41.2031 235.083 40.2292 234.969 38.9062C234.865 37.7396 234.771 36.5781 234.688 35.4219C234.646 35.4323 234.599 35.4375 234.547 35.4375C234.38 35.4375 234.24 35.3542 234.125 35.1875C234.083 35.1146 234.062 35.0365 234.062 34.9531C234.062 34.776 234.146 34.6302 234.312 34.5156C234.438 34.4531 234.536 34.3646 234.609 34.25L234.547 33.2031C234.547 32.724 234.609 32.3698 234.734 32.1406C234.87 31.901 235.021 31.7812 235.188 31.7812C235.333 31.7812 235.474 31.8854 235.609 32.0938C235.776 32.3438 235.87 32.7292 235.891 33.25C235.891 33.6354 235.802 34.0521 235.625 34.5C235.708 35.7083 235.807 37.0208 235.922 38.4375C236.422 35.9792 236.844 34.25 237.188 33.25C237.542 32.2396 237.88 31.7344 238.203 31.7344C238.505 31.7656 238.729 32 238.875 32.4375C239.031 32.875 239.172 33.4167 239.297 34.0625C239.516 35.1146 239.75 36.0365 240 36.8281C240.26 37.6198 240.562 38.2448 240.906 38.7031C241.25 39.151 241.661 39.375 242.141 39.375C243.068 39.375 244.307 38.4167 245.859 36.5C245.974 36.375 246.099 36.3125 246.234 36.3125C246.359 36.3125 246.474 36.3646 246.578 36.4688C246.682 36.5625 246.734 36.6771 246.734 36.8125C246.734 36.9062 246.698 37.0052 246.625 37.1094C244.854 39.3177 243.354 40.4219 242.125 40.4219C241.49 40.4219 240.938 40.1615 240.469 39.6406C240 39.1198 239.589 38.401 239.234 37.4844C238.891 36.5573 238.589 35.4844 238.328 34.2656C238.234 33.7865 238.177 33.4115 238.156 33.1406C238.146 32.8698 238.12 32.7292 238.078 32.7188C238.026 32.7188 237.427 35.7448 236.281 41.7969C236.26 41.9427 236.198 42.0469 236.094 42.1094C236 42.1823 235.896 42.2188 235.781 42.2188Z" fill="#2A2977"/>
<path d="M248.812 41.6562C248.219 41.6562 247.656 41.4688 247.125 41.0938C246.25 40.4271 245.812 39.4375 245.812 38.125C245.812 37.5 245.906 36.8802 246.094 36.2656C246.292 35.6406 246.536 35.0938 246.828 34.625C247.276 33.9479 247.76 33.4427 248.281 33.1094C248.802 32.7656 249.276 32.5938 249.703 32.5938C250.057 32.5938 250.349 32.7083 250.578 32.9375C250.818 33.1667 250.938 33.5052 250.938 33.9531C250.938 34.5573 250.667 35.3594 250.125 36.3594C249.781 36.9427 249.328 37.5052 248.766 38.0469C248.203 38.5781 247.625 39.0052 247.031 39.3281C247.188 39.7344 247.427 40.0573 247.75 40.2969C248.073 40.5365 248.438 40.6562 248.844 40.6562C249.802 40.6562 250.953 40.099 252.297 38.9844C253.255 38.1927 254.104 37.3594 254.844 36.4844C254.958 36.3698 255.078 36.3125 255.203 36.3125C255.339 36.3125 255.458 36.3646 255.562 36.4688C255.677 36.5729 255.734 36.6927 255.734 36.8281C255.734 36.9323 255.693 37.0365 255.609 37.1406C254.703 38.1927 253.724 39.1302 252.672 39.9531C251.234 41.0885 249.948 41.6562 248.812 41.6562ZM246.828 38.2969C247.286 38.0156 247.734 37.6562 248.172 37.2188C248.62 36.7812 248.979 36.3281 249.25 35.8594C249.729 34.9844 249.969 34.3646 249.969 34C249.969 33.7083 249.859 33.5625 249.641 33.5625C249.38 33.5625 249.062 33.7083 248.688 34C248.323 34.2917 247.984 34.6771 247.672 35.1562C247.099 36.1354 246.812 37.0885 246.812 38.0156L246.828 38.2969Z" fill="#2A2977"/>
</svg>
