<svg width="24" height="24" viewBox="0 0 24 24" fill="none" xmlns="http://www.w3.org/2000/svg">
<path d="M14.1217 20.5C15.2495 20.6915 16 21.031 16 21.4176C16 22.015 14.2075 22.5 12 22.5C9.79252 22.5 8 22.015 8 21.4176C8 21.0486 8.68383 20.7225 9.72689 20.527L9.82492 20.51C9.15754 20.6346 8.72041 20.8154 8.67129 21.0184L8.66667 21.0568C8.66667 21.4552 10.1602 21.7784 12 21.7784L12.3515 21.7744C14.0263 21.7364 15.3333 21.4295 15.3333 21.0568C15.3333 20.8519 14.9385 20.667 14.3049 20.5356L14.1217 20.5ZM11.959 2C15.844 2 19 5.1 19 8.836C19 12.493 14.063 17.899 11.959 21C9.936 17.899 5 12.493 5 8.836C5 5.1 8.156 2 11.959 2ZM12.013 4.002C9.31 4.002 7.058 6.164 7.058 8.957C7.058 11.75 9.31 14.002 12.013 14.002C14.805 14.002 17.058 11.751 17.058 8.957C17.058 6.165 14.806 4.002 12.013 4.002Z" fill="#A9A9A9"/>
</svg>
