<svg width="24" height="24" viewBox="0 0 24 24" fill="none" xmlns="http://www.w3.org/2000/svg">
<path fill-rule="evenodd" clip-rule="evenodd" d="M21.0395 17.0064H3.01817C3.806 16.0456 4.24738 14.2312 4.24738 10.1933C4.24738 5.92941 7.46442 4.12278 9.46487 3.35955C9.38014 3.10588 9.32402 2.82353 9.32402 2.54118C9.32402 1.12941 10.4508 0 11.8592 0C13.2677 0 14.3944 1.12941 14.3944 2.54118C14.3944 2.82353 14.3383 3.10587 14.2547 3.36065C16.2552 4.12272 19.5188 5.90183 19.5188 10.1933C19.5188 14.26 20.2505 16.0469 21.0395 17.0064ZM13.1829 3.04944C13.239 2.87958 13.2676 2.71083 13.2676 2.54098C13.2676 1.75016 12.6481 1.12921 11.8592 1.12921C11.0702 1.12921 10.4507 1.75016 10.4507 2.54098C10.4507 2.71084 10.4793 2.87959 10.5354 3.04944C11.0416 2.93694 12.0561 2.76709 13.1829 3.04944ZM9.52099 5.89623C9.38014 5.64255 9.04234 5.55763 8.76065 5.6988C8.67592 5.72619 6.53575 6.96928 6.22544 9.19953C6.19682 9.51054 6.39488 9.79291 6.70409 9.82048H6.78881C7.0705 9.82048 7.32359 9.62306 7.35219 9.34071C7.56073 7.8011 9.04439 6.84022 9.28999 6.68117C9.31006 6.66817 9.32186 6.66052 9.32402 6.65836C9.57711 6.51718 9.66183 6.17858 9.52099 5.89623ZM15 20.9998C14.7984 22.7003 13.5294 23.9998 12.0001 23.9998H11.9999C10.4707 23.9998 9.20173 22.7003 9 20.9998H15ZM2 17.4998H22.0015C21.999 18.9326 21.499 20.4998 20.0269 20.4998H3.99763C2.50212 20.4998 2 18.9324 2 17.4998Z" fill="#A9A9A9"/>
</svg>
