<svg width="24" height="24" viewBox="0 0 24 24" fill="none" xmlns="http://www.w3.org/2000/svg">
<path fill-rule="evenodd" clip-rule="evenodd" d="M22.5 7.5C22.5 6.25687 21.4931 5.25 20.25 5.25H3.75C2.50687 5.25 1.5 6.25687 1.5 7.5V16.5C1.5 17.7431 2.50687 18.75 3.75 18.75H20.25C21.4931 18.75 22.5 17.7431 22.5 16.5V7.5ZM3 15V16.5C3 16.9144 3.33562 17.25 3.75 17.25H5.25C5.25 16.0078 4.24219 15 3 15ZM17.25 6.75H6.75C6.75 8.82 5.07 10.5 3 10.5V13.5C5.07 13.5 6.75 15.18 6.75 17.25H17.25C17.25 15.18 18.93 13.5 21 13.5V10.5C18.93 10.5 17.25 8.82 17.25 6.75ZM21 15C19.7578 15 18.75 16.0078 18.75 17.25H20.25C20.6644 17.25 21 16.9144 21 16.5V15ZM12 8.25C9.93 8.25 8.25 9.93 8.25 12C8.25 14.07 9.93 15.75 12 15.75C14.07 15.75 15.75 14.07 15.75 12C15.75 9.93 14.07 8.25 12 8.25ZM12 9.75C13.2422 9.75 14.25 10.7578 14.25 12C14.25 13.2422 13.2422 14.25 12 14.25C10.7578 14.25 9.75 13.2422 9.75 12C9.75 10.7578 10.7578 9.75 12 9.75ZM5.25 6.75H3.75C3.33562 6.75 3 7.08562 3 7.5V9C4.24219 9 5.25 7.99219 5.25 6.75ZM18.75 6.75C18.75 7.99219 19.7578 9 21 9V7.5C21 7.08562 20.6644 6.75 20.25 6.75H18.75Z" fill="#A9A9A9"/>
</svg>
