<svg width="28" height="28" viewBox="0 0 28 28" fill="none" xmlns="http://www.w3.org/2000/svg">
<g opacity="0.5">
<path fill-rule="evenodd" clip-rule="evenodd" d="M14.0007 10.5002C13.0309 10.5002 12.2052 10.8411 11.5234 11.5229C10.8416 12.2047 10.5007 13.0305 10.5007 14.0002C10.5007 14.9699 10.8416 15.7956 11.5234 16.4774C12.2052 17.1593 13.0309 17.5002 14.0007 17.5002C14.9704 17.5002 15.7961 17.1593 16.4779 16.4774C17.1597 15.7956 17.5007 14.9699 17.5007 14.0002C17.5007 13.0305 17.1597 12.2047 16.4779 11.5229C15.7961 10.8411 14.9704 10.5002 14.0007 10.5002ZM12.3856 2.3335H15.6157L16.5075 5.17785C16.8611 5.29034 17.2106 5.41889 17.5561 5.56352C17.9016 5.70815 18.227 5.86081 18.5323 6.02151L21.0874 4.59934L23.4015 6.91339L21.9552 9.42027C22.132 9.75774 22.2967 10.0992 22.4493 10.4447C22.602 10.7902 22.7265 11.1638 22.823 11.5656L25.6673 12.3851V15.6152L22.823 16.507C22.7105 16.8606 22.5819 17.2101 22.4373 17.5556C22.2927 17.9011 22.14 18.2265 21.9793 18.5318L23.4015 21.0869L21.0874 23.401L18.5805 21.9547C18.2431 22.1315 17.9016 22.2962 17.5561 22.4489C17.2106 22.6015 16.837 22.7261 16.4352 22.8225L15.6157 25.6668H12.3856L11.4938 22.8225C11.1402 22.71 10.7907 22.5814 10.4452 22.4368C10.0997 22.2922 9.7743 22.1395 9.46897 21.9788L6.91387 23.401L4.59982 21.0869L6.04611 18.5801C5.86934 18.2426 5.70462 17.9011 5.55196 17.5556C5.3993 17.2101 5.27476 16.8365 5.17834 16.4347L2.33398 15.6152V12.3851L5.17834 11.4933C5.29083 11.1397 5.41938 10.7902 5.56401 10.4447C5.70864 10.0992 5.8613 9.77381 6.022 9.46848L4.59982 6.91339L6.91387 4.59934L9.42076 6.04562C9.75823 5.86885 10.0997 5.70413 10.4452 5.55147C10.7907 5.39881 11.1643 5.27427 11.5661 5.17785L12.3856 2.3335Z" fill="#ACB8DC"/>
</g>
</svg>
