<svg width="28" height="28" viewBox="0 0 28 28" fill="none" xmlns="http://www.w3.org/2000/svg">
<g clip-path="url(#clip0_15_1178)">
<path fill-rule="evenodd" clip-rule="evenodd" d="M14 0.0512695C10.2586 0.0512695 6.77169 1.50882 4.14061 4.1411C1.50849 6.77203 0.0507812 10.2591 0.0507812 14.0004C0.0507812 16.6635 0.811651 19.2946 2.27039 21.5461C4.83714 25.5407 9.21226 27.9493 13.9997 27.9493C17.741 27.9493 21.2279 26.4906 23.859 23.8595C24.5569 23.1616 25.1905 22.3699 25.7291 21.5139C27.1557 19.2634 27.9487 16.6632 27.9487 13.9682C27.9487 10.2268 26.4899 6.73992 23.8588 4.10884C21.2279 1.50879 17.7408 0.0512695 13.9995 0.0512695H14ZM16.758 18.3121C19.4529 17.4241 22.4335 18.0898 24.3036 20.2143C25.4449 18.3432 26.0465 16.1876 26.0465 14.0001C26.0465 10.7984 24.7793 7.75492 22.5276 5.47231C20.245 3.22197 17.2015 1.95344 13.9998 1.95344C10.798 1.95344 7.75455 3.22063 5.47195 5.47231C3.2216 7.75492 1.95308 10.7984 1.95308 14.0001C1.95308 16.1878 2.55465 18.3431 3.69596 20.2143C5.56709 18.0898 8.5465 17.4241 11.2417 18.3121C12.0976 18.5975 13.0487 18.7556 13.9998 18.7556C14.9509 18.7556 15.902 18.5975 16.758 18.3121ZM14 4.80666C10.513 4.80666 7.65978 7.65992 7.65978 11.1468C7.65978 14.6337 10.513 17.487 14 17.487C17.4869 17.487 20.3401 14.6337 20.3401 11.1468C20.3401 7.65992 17.4869 4.80666 14 4.80666Z" fill="#42527C"/>
</g>
<defs>
<clipPath id="clip0_15_1178">
<rect width="28" height="28" fill="white"/>
</clipPath>
</defs>
</svg>
